<mxfile host="Electron" modified="2023-05-21T04:59:25.707Z" agent="Mozilla/5.0 (Windows NT 10.0; Win64; x64) AppleWebKit/537.36 (KHTML, like Gecko) draw.io/21.2.1 Chrome/112.0.5615.87 Electron/24.1.2 Safari/537.36" etag="N9SR0VsK4rFTByQjoUB8" version="21.2.1" type="device">
  <diagram name="第 1 页" id="bPc9B881PRHNCZ5h8nxO">
    <mxGraphModel dx="911" dy="592" grid="1" gridSize="10" guides="1" tooltips="1" connect="1" arrows="1" fold="1" page="1" pageScale="1" pageWidth="827" pageHeight="1169" math="0" shadow="0">
      <root>
        <mxCell id="0" />
        <mxCell id="1" parent="0" />
        <mxCell id="_IKwCI39_ukx6srfYUin-6" value="" style="shape=cube;whiteSpace=wrap;html=1;boundedLbl=1;backgroundOutline=1;darkOpacity=0.05;darkOpacity2=0.1;size=53;flipH=1;fillColor=#33A354;gradientColor=#5FBD91;gradientDirection=north;strokeColor=none;shadow=1;" vertex="1" parent="1">
          <mxGeometry x="331" y="180" width="259" height="230" as="geometry" />
        </mxCell>
        <mxCell id="_IKwCI39_ukx6srfYUin-1" value="" style="shape=card;whiteSpace=wrap;html=1;rotation=-180;fillColor=#f5f5f5;fontColor=#333333;strokeColor=none;shadow=1;" vertex="1" parent="1">
          <mxGeometry x="160" y="270" width="100" height="110" as="geometry" />
        </mxCell>
        <mxCell id="_IKwCI39_ukx6srfYUin-2" value="&lt;b&gt;&lt;font color=&quot;#475160&quot; style=&quot;font-size: 20px;&quot;&gt;View&lt;/font&gt;&lt;/b&gt;" style="text;html=1;strokeColor=none;fillColor=none;align=center;verticalAlign=middle;whiteSpace=wrap;rounded=0;" vertex="1" parent="1">
          <mxGeometry x="180" y="310" width="60" height="30" as="geometry" />
        </mxCell>
        <mxCell id="_IKwCI39_ukx6srfYUin-7" value="&lt;b&gt;&lt;font color=&quot;#ffffff&quot; style=&quot;font-size: 20px;&quot;&gt;ViewModel&lt;/font&gt;&lt;/b&gt;" style="text;html=1;strokeColor=none;fillColor=none;align=center;verticalAlign=middle;whiteSpace=wrap;rounded=0;" vertex="1" parent="1">
          <mxGeometry x="430.5" y="191" width="60" height="30" as="geometry" />
        </mxCell>
        <mxCell id="_IKwCI39_ukx6srfYUin-12" style="edgeStyle=orthogonalEdgeStyle;rounded=0;orthogonalLoop=1;jettySize=auto;html=1;exitX=0;exitY=0.5;exitDx=0;exitDy=0;entryX=-0.027;entryY=0.821;entryDx=0;entryDy=0;entryPerimeter=0;startArrow=none;startFill=0;endArrow=none;endFill=0;strokeWidth=2;" edge="1" parent="1" source="_IKwCI39_ukx6srfYUin-8" target="_IKwCI39_ukx6srfYUin-1">
          <mxGeometry relative="1" as="geometry" />
        </mxCell>
        <mxCell id="_IKwCI39_ukx6srfYUin-13" style="edgeStyle=orthogonalEdgeStyle;rounded=0;orthogonalLoop=1;jettySize=auto;html=1;exitX=1;exitY=0.5;exitDx=0;exitDy=0;entryX=-0.025;entryY=0.212;entryDx=0;entryDy=0;entryPerimeter=0;strokeWidth=2;" edge="1" parent="1" source="_IKwCI39_ukx6srfYUin-8" target="_IKwCI39_ukx6srfYUin-10">
          <mxGeometry relative="1" as="geometry" />
        </mxCell>
        <mxCell id="_IKwCI39_ukx6srfYUin-8" value="&lt;b&gt;&lt;font color=&quot;#ffffff&quot; style=&quot;font-size: 16px;&quot;&gt;DOM&amp;nbsp; Listeners&lt;/font&gt;&lt;/b&gt;" style="rounded=1;whiteSpace=wrap;html=1;strokeColor=none;fillColor=#334961;" vertex="1" parent="1">
          <mxGeometry x="345" y="270" width="180" height="40" as="geometry" />
        </mxCell>
        <mxCell id="_IKwCI39_ukx6srfYUin-15" style="edgeStyle=orthogonalEdgeStyle;rounded=0;orthogonalLoop=1;jettySize=auto;html=1;strokeWidth=2;endArrow=none;endFill=0;exitX=1;exitY=0.5;exitDx=0;exitDy=0;" edge="1" parent="1">
          <mxGeometry relative="1" as="geometry">
            <mxPoint x="669" y="350" as="targetPoint" />
            <mxPoint x="527" y="350" as="sourcePoint" />
          </mxGeometry>
        </mxCell>
        <mxCell id="_IKwCI39_ukx6srfYUin-16" style="edgeStyle=orthogonalEdgeStyle;rounded=0;orthogonalLoop=1;jettySize=auto;html=1;exitX=0;exitY=0.5;exitDx=0;exitDy=0;entryX=0;entryY=0;entryDx=0;entryDy=30;entryPerimeter=0;strokeWidth=2;" edge="1" parent="1" source="_IKwCI39_ukx6srfYUin-9" target="_IKwCI39_ukx6srfYUin-1">
          <mxGeometry relative="1" as="geometry" />
        </mxCell>
        <mxCell id="_IKwCI39_ukx6srfYUin-9" value="&lt;b&gt;&lt;font color=&quot;#475160&quot; style=&quot;font-size: 16px;&quot;&gt;Data Bindings&lt;/font&gt;&lt;/b&gt;" style="rounded=1;whiteSpace=wrap;html=1;strokeColor=none;fillColor=#ffda5d;" vertex="1" parent="1">
          <mxGeometry x="345" y="330" width="180" height="40" as="geometry" />
        </mxCell>
        <mxCell id="_IKwCI39_ukx6srfYUin-10" value="" style="shape=cylinder3;whiteSpace=wrap;html=1;boundedLbl=1;backgroundOutline=1;size=15;gradientColor=#a6c4f6;fillColor=#5C86CF;gradientDirection=north;strokeColor=none;shadow=1;" vertex="1" parent="1">
          <mxGeometry x="670" y="265" width="100" height="120" as="geometry" />
        </mxCell>
        <mxCell id="_IKwCI39_ukx6srfYUin-11" value="&lt;b&gt;&lt;font color=&quot;#ffffff&quot; style=&quot;font-size: 20px;&quot;&gt;Model&lt;/font&gt;&lt;/b&gt;" style="text;html=1;strokeColor=none;fillColor=none;align=center;verticalAlign=middle;whiteSpace=wrap;rounded=0;" vertex="1" parent="1">
          <mxGeometry x="690" y="310" width="60" height="30" as="geometry" />
        </mxCell>
        <mxCell id="_IKwCI39_ukx6srfYUin-17" value="" style="endArrow=classic;html=1;rounded=0;strokeWidth=2;strokeColor=#009900;dashed=1;" edge="1" parent="1">
          <mxGeometry width="50" height="50" relative="1" as="geometry">
            <mxPoint x="209.5" y="400" as="sourcePoint" />
            <mxPoint x="209.5" y="440" as="targetPoint" />
          </mxGeometry>
        </mxCell>
        <mxCell id="_IKwCI39_ukx6srfYUin-18" value="&lt;b&gt;&lt;font color=&quot;#475160&quot; style=&quot;font-size: 20px;&quot;&gt;DOM&lt;/font&gt;&lt;/b&gt;" style="text;html=1;strokeColor=none;fillColor=none;align=center;verticalAlign=middle;whiteSpace=wrap;rounded=0;" vertex="1" parent="1">
          <mxGeometry x="180" y="442" width="60" height="30" as="geometry" />
        </mxCell>
        <mxCell id="_IKwCI39_ukx6srfYUin-19" value="" style="endArrow=classic;html=1;rounded=0;strokeWidth=2;strokeColor=#009900;dashed=1;" edge="1" parent="1">
          <mxGeometry width="50" height="50" relative="1" as="geometry">
            <mxPoint x="434.5" y="430" as="sourcePoint" />
            <mxPoint x="434.5" y="470" as="targetPoint" />
          </mxGeometry>
        </mxCell>
        <mxCell id="_IKwCI39_ukx6srfYUin-20" value="&lt;b&gt;&lt;font color=&quot;#475160&quot; style=&quot;font-size: 20px;&quot;&gt;Vue&lt;/font&gt;&lt;/b&gt;" style="text;html=1;strokeColor=none;fillColor=none;align=center;verticalAlign=middle;whiteSpace=wrap;rounded=0;" vertex="1" parent="1">
          <mxGeometry x="405" y="470" width="60" height="30" as="geometry" />
        </mxCell>
        <mxCell id="_IKwCI39_ukx6srfYUin-21" value="" style="endArrow=classic;html=1;rounded=0;strokeWidth=2;strokeColor=#009900;dashed=1;" edge="1" parent="1">
          <mxGeometry width="50" height="50" relative="1" as="geometry">
            <mxPoint x="719.5" y="410" as="sourcePoint" />
            <mxPoint x="719.5" y="450" as="targetPoint" />
          </mxGeometry>
        </mxCell>
        <mxCell id="_IKwCI39_ukx6srfYUin-22" value="&lt;b&gt;&lt;font color=&quot;#475160&quot; style=&quot;font-size: 20px;&quot;&gt;Plain JavaScript Objects&lt;/font&gt;&lt;/b&gt;" style="text;html=1;strokeColor=none;fillColor=none;align=center;verticalAlign=middle;whiteSpace=wrap;rounded=0;" vertex="1" parent="1">
          <mxGeometry x="630" y="460" width="180" height="30" as="geometry" />
        </mxCell>
      </root>
    </mxGraphModel>
  </diagram>
</mxfile>
